<svg width="106" height="27" viewBox="0 0 106 27" fill="none" xmlns="http://www.w3.org/2000/svg">
<path d="M24.75 19.125C24.75 20.015 24.4861 20.885 23.9916 21.6251C23.4971 22.3651 22.7943 22.9419 21.9721 23.2825C21.1498 23.6231 20.245 23.7122 19.3721 23.5385C18.4992 23.3649 17.6974 22.9363 17.068 22.307C16.4387 21.6776 16.0101 20.8758 15.8365 20.0029C15.6628 19.13 15.7519 18.2252 16.0925 17.4029C16.4331 16.5807 17.0099 15.8779 17.7499 15.3834C18.49 14.8889 19.36 14.625 20.25 14.625C21.4435 14.625 22.5881 15.0991 23.432 15.943C24.2759 16.7869 24.75 17.9315 24.75 19.125ZM23.625 3.375H4.5C3.90326 3.375 3.33097 3.61205 2.90901 4.03401C2.48705 4.45597 2.25 5.02826 2.25 5.625V21.375C2.25 21.9717 2.48705 22.544 2.90901 22.966C3.33097 23.3879 3.90326 23.625 4.5 23.625H15.2325C14.0753 22.3425 13.4547 20.6646 13.499 18.9377C13.5433 17.2109 14.249 15.567 15.4705 14.3455C16.692 13.124 18.3359 12.4183 20.0627 12.374C21.7896 12.3297 23.4675 12.9503 24.75 14.1075V9C24.75 8.70163 24.6315 8.41548 24.4205 8.2045C24.2095 7.99353 23.9234 7.875 23.625 7.875H5.625C5.32663 7.875 5.04048 7.75647 4.8295 7.54549C4.61853 7.33452 4.5 7.04837 4.5 6.75C4.5 6.45163 4.61853 6.16548 4.8295 5.9545C5.04048 5.74353 5.32663 5.625 5.625 5.625H24.75V4.5C24.75 4.20163 24.6315 3.91548 24.4205 3.7045C24.2095 3.49353 23.9234 3.375 23.625 3.375Z" fill="white"/>
<path d="M34.9844 21V5.72727H45.723V9.06818H39.1307V11.6932H45.0668V15.0341H39.1307V21H34.9844ZM47.3077 21V9.54545H51.4242V21H47.3077ZM49.3659 8.35227C48.8091 8.35227 48.3319 8.16832 47.9341 7.80043C47.5364 7.43253 47.3375 6.99006 47.3375 6.47301C47.3375 5.95597 47.5364 5.51349 47.9341 5.1456C48.3319 4.7777 48.8091 4.59375 49.3659 4.59375C49.9277 4.59375 50.405 4.7777 50.7978 5.1456C51.1955 5.51349 51.3944 5.95597 51.3944 6.47301C51.3944 6.99006 51.1955 7.43253 50.7978 7.80043C50.405 8.16832 49.9277 8.35227 49.3659 8.35227ZM57.6381 14.5568V21H53.5216V9.54545H57.4292V11.723H57.5486C57.7971 10.9972 58.2346 10.4279 58.8611 10.0153C59.4925 9.60263 60.2282 9.39631 61.0684 9.39631C61.8788 9.39631 62.5823 9.58274 63.1789 9.95561C63.7805 10.3235 64.2453 10.8306 64.5734 11.4769C64.9065 12.1232 65.0706 12.8615 65.0656 13.6918V21H60.9491V14.5568C60.9541 13.9901 60.8099 13.5451 60.5166 13.2219C60.2282 12.8988 59.8256 12.7372 59.3085 12.7372C58.9704 12.7372 58.6746 12.8118 58.4211 12.9609C58.1725 13.1051 57.9811 13.3139 57.8469 13.5874C57.7126 13.8558 57.643 14.179 57.6381 14.5568ZM70.2895 21.179C69.5587 21.179 68.9124 21.0597 68.3506 20.821C67.7938 20.5774 67.3563 20.2095 67.0381 19.7173C66.7199 19.2251 66.5608 18.5987 66.5608 17.8381C66.5608 17.2116 66.6677 16.6772 66.8815 16.2347C67.0953 15.7873 67.3936 15.4219 67.7764 15.1385C68.1592 14.8551 68.6041 14.6388 69.1112 14.4897C69.6233 14.3406 70.1752 14.2436 70.7668 14.1989C71.4081 14.1491 71.9227 14.0895 72.3105 14.0199C72.7032 13.9453 72.9866 13.8434 73.1606 13.7141C73.3346 13.5799 73.4216 13.4034 73.4216 13.1847V13.1548C73.4216 12.8565 73.3073 12.6278 73.0786 12.4688C72.8499 12.3097 72.5566 12.2301 72.1986 12.2301C71.8058 12.2301 71.4852 12.3171 71.2366 12.4911C70.993 12.6602 70.8463 12.9212 70.7966 13.2741H67.0083C67.058 12.5781 67.2792 11.9368 67.672 11.3501C68.0697 10.7585 68.6489 10.2862 69.4095 9.93324C70.1702 9.57528 71.1198 9.39631 72.2583 9.39631C73.0786 9.39631 73.8144 9.49325 74.4656 9.68715C75.1169 9.87607 75.6713 10.142 76.1286 10.4851C76.586 10.8232 76.934 11.2209 77.1727 11.6783C77.4163 12.1307 77.5381 12.6229 77.5381 13.1548V21H73.6901V19.3892H73.6006C73.3719 19.8168 73.0935 20.1623 72.7654 20.4258C72.4422 20.6893 72.0718 20.8807 71.6542 21C71.2416 21.1193 70.7867 21.179 70.2895 21.179ZM71.6318 18.5838C71.945 18.5838 72.2384 18.5192 72.5118 18.3899C72.7902 18.2607 73.0164 18.0742 73.1904 17.8306C73.3644 17.587 73.4514 17.2912 73.4514 16.9432V15.9886C73.3421 16.0334 73.2252 16.0756 73.1009 16.1154C72.9816 16.1552 72.8524 16.1925 72.7132 16.2273C72.5789 16.2621 72.4347 16.2944 72.2806 16.3242C72.1315 16.354 71.9749 16.3814 71.8108 16.4062C71.4926 16.456 71.2316 16.538 71.0278 16.6523C70.8289 16.7617 70.6798 16.8984 70.5803 17.0625C70.4859 17.2216 70.4387 17.4006 70.4387 17.5994C70.4387 17.9176 70.5505 18.1612 70.7742 18.3303C70.998 18.4993 71.2838 18.5838 71.6318 18.5838ZM79.505 25.2955V9.54545H83.5916V11.544H83.6811C83.8303 11.1562 84.049 10.8008 84.3374 10.4776C84.6257 10.1495 84.9837 9.88849 85.4112 9.6946C85.8388 9.49574 86.3359 9.39631 86.9027 9.39631C87.6584 9.39631 88.3768 9.59766 89.0579 10.0004C89.744 10.4031 90.3008 11.0369 90.7283 11.902C91.1609 12.767 91.3771 13.8906 91.3771 15.2727C91.3771 16.5952 91.1708 17.6914 90.7582 18.5614C90.3505 19.4315 89.8036 20.0803 89.1175 20.5078C88.4364 20.9354 87.6882 21.1491 86.8729 21.1491C86.3359 21.1491 85.8562 21.0621 85.4336 20.8881C85.016 20.7092 84.658 20.468 84.3597 20.1648C84.0664 19.8565 83.8402 19.5085 83.6811 19.1207H83.6214V25.2955H79.505ZM83.532 15.2727C83.532 15.8295 83.604 16.3118 83.7482 16.7195C83.8974 17.1222 84.1062 17.4354 84.3746 17.6591C84.6481 17.8778 84.9737 17.9872 85.3516 17.9872C85.7294 17.9872 86.0501 17.8803 86.3136 17.6665C86.582 17.4478 86.7859 17.1371 86.9251 16.7344C87.0692 16.3267 87.1413 15.8395 87.1413 15.2727C87.1413 14.706 87.0692 14.2212 86.9251 13.8185C86.7859 13.4109 86.582 13.1001 86.3136 12.8864C86.0501 12.6676 85.7294 12.5582 85.3516 12.5582C84.9737 12.5582 84.6481 12.6676 84.3746 12.8864C84.1062 13.1001 83.8974 13.4109 83.7482 13.8185C83.604 14.2212 83.532 14.706 83.532 15.2727ZM93.1017 25.2955V9.54545H97.1883V11.544H97.2778C97.4269 11.1562 97.6457 10.8008 97.934 10.4776C98.2224 10.1495 98.5803 9.88849 99.0079 9.6946C99.4355 9.49574 99.9326 9.39631 100.499 9.39631C101.255 9.39631 101.973 9.59766 102.655 10.0004C103.341 10.4031 103.897 11.0369 104.325 11.902C104.758 12.767 104.974 13.8906 104.974 15.2727C104.974 16.5952 104.767 17.6914 104.355 18.5614C103.947 19.4315 103.4 20.0803 102.714 20.5078C102.033 20.9354 101.285 21.1491 100.47 21.1491C99.9326 21.1491 99.4529 21.0621 99.0303 20.8881C98.6127 20.7092 98.2547 20.468 97.9564 20.1648C97.6631 19.8565 97.4369 19.5085 97.2778 19.1207H97.2181V25.2955H93.1017ZM97.1286 15.2727C97.1286 15.8295 97.2007 16.3118 97.3449 16.7195C97.4941 17.1222 97.7029 17.4354 97.9713 17.6591C98.2448 17.8778 98.5704 17.9872 98.9482 17.9872C99.3261 17.9872 99.6468 17.8803 99.9102 17.6665C100.179 17.4478 100.383 17.1371 100.522 16.7344C100.666 16.3267 100.738 15.8395 100.738 15.2727C100.738 14.706 100.666 14.2212 100.522 13.8185C100.383 13.4109 100.179 13.1001 99.9102 12.8864C99.6468 12.6676 99.3261 12.5582 98.9482 12.5582C98.5704 12.5582 98.2448 12.6676 97.9713 12.8864C97.7029 13.1001 97.4941 13.4109 97.3449 13.8185C97.2007 14.2212 97.1286 14.706 97.1286 15.2727Z" fill="white"/>
</svg>
